:SAMPLES-PER-SECOND 30
:FULLY-SPECIFIED
:DEGREES
423
root  4.04985 34.1061 -24.5917 1.17374 68.5778 -9.89272
RightUpLeg  -24.7173 -30.3712 7.02752
RightLeg  20.3333 -11.5833 -3.43511
RightFoot  2.66056 0.021544 -0.347564
RightToes  -17.2716 -0.0667771 -0.154531
Spine  -0.960545 -1.02945 0.239306
Spine1  -1.93476 -2.0497 1.30951
HEad  -74.8903 -24.7135 14.4386
LeftShoulder1  -1.94126e-019 -3.10601e-018 -2.51263e-017
LeftArm  -16.0019 24.8422 -81.1247
LeftForeArm  18.3547 -27.4628 -4.89369
LeftHand  -0.342783 2.39103 13.0597
RightShoulder  -4.96962e-017 0 -2.36833e-017
RightArm  -28.9145 -11.6865 66.1729
RightForeArm  82.6386 78.9515 51.7018
RightHand  0.169739 -7.78513 -9.63866
LeftUpLeg  -4.94701 27.0841 9.63052
LeftLeg  19.3059 28.2786 7.54473
LeftFoot  4.90403 -0.117269 2.89962
LeftToes  -31.7573 2.25955e-006 -3.67304e-008
424
root  4.34219 34.0479 -23.807 -0.414218 64.5943 -11.3087
RightUpLeg  -23.1438 -28.258 8.35685
RightLeg  19.711 -10.0324 -2.8641
RightFoot  2.85454 0.0221951 -0.316888
RightToes  -19.2645 -0.0773968 -0.170883
Spine  -1.28949 -1.08797 0.46338
Spine1  -2.58363 -2.18455 1.80605
HEad  -72.9059 -24.1553 14.3068
LeftShoulder1  -1.94126e-019 -3.10601e-018 -2.51263e-017
LeftArm  -14.1329 24.0235 -80.6614
LeftForeArm  19.6591 -28.2194 -5.00141
LeftHand  -0.368887 2.00526 12.5076
RightShoulder  -4.96962e-017 0 -2.36833e-017
RightArm  -31.1548 -5.70068 62.5124
RightForeArm  138.07 80.7533 108.638
RightHand  0.245018 -8.42023 -10.5298
LeftUpLeg  -4.31612 27.032 12.2331
LeftLeg  23.9903 30.0537 10.497
LeftFoot  7.16393 -0.276401 4.5749
LeftToes  -35.5554 2.25955e-006 -3.67304e-008
425
root  4.62664 34.0587 -22.9624 -2.25396 60.6403 -12.3434
RightUpLeg  -19.8856 -25.8212 9.34298
RightLeg  17.6212 -8.99453 -2.22078
RightFoot  2.66744 0.018121 -0.232903
RightToes  -18.366 -0.0810297 -0.163556
Spine  -1.37708 -1.15269 0.600527
Spine1  -2.75554 -2.31702 2.09512
HEad  -70.3686 -23.2977 13.9843
LeftShoulder1  -1.94126e-019 -3.10601e-018 -2.51263e-017
LeftArm  -12.4346 23.0365 -79.9792
LeftForeArm  21.308 -28.9505 -5.08796
LeftHand  -0.388051 1.67602 12.032
RightShoulder  -4.96962e-017 0 -2.36833e-017
RightArm  -34.0498 2.31276 59.084
RightForeArm  167.026 77.2545 137.246
RightHand  0.27698 -8.4956 -11.4204
LeftUpLeg  -3.83423 26.6038 15.1937
LeftLeg  30.5284 30.3411 14.3384
LeftFoot  11.2392 -0.723578 7.50535
LeftToes  -39.8459 2.25955e-006 -3.67304e-008
426
root  4.90549 34.1253 -22.2205 -2.19783 56.7578 -11.481
RightUpLeg  -16.9779 -22.6338 9.34429
RightLeg  15.8186 -8.50899 -1.82071
RightFoot  2.51571 0.0164272 -0.186065
RightToes  -17.2761 -0.0821042 -0.154569
Spine  -1.47755 -1.16235 0.405755
Spine1  -2.94109 -2.35155 1.72033
HEad  -67.7023 -22.7492 13.2975
LeftShoulder1  -1.94126e-019 -3.10601e-018 -2.51263e-017
LeftArm  -11.1621 22.1047 -79.1274
LeftForeArm  22.2933 -29.8323 -5.24393
LeftHand  -0.372805 1.66216 11.5093
RightShoulder  -4.96962e-017 0 -2.36833e-017
RightArm  -37.1852 11.3356 55.7061
RightForeArm  176.377 75.0673 145.198
RightHand  0.350725 -8.56127 -13.7356
LeftUpLeg  -4.22382 25.3739 16.5444
LeftLeg  37.3525 29.1872 17.9925
LeftFoot  14.49 -1.23092 9.82161
LeftToes  -34.6495 2.25955e-006 -3.67304e-008
427
root  5.21196 34.2041 -21.5999 -1.78906 53.2678 -10.3648
RightUpLeg  -14.3896 -20.3215 9.04177
RightLeg  14.0573 -7.53239 -1.37296
RightFoot  2.52825 0.0154908 -0.145193
RightToes  -16.6748 -0.0813347 -0.149564
Spine  -1.52937 -1.10812 0.126546
Spine1  -3.03201 -2.23628 1.14695
HEad  -66.2702 -22.6445 12.5839
LeftShoulder1  -1.94126e-019 -3.10601e-018 -2.51263e-017
LeftArm  -10.3682 21.0338 -78.5082
LeftForeArm  22.8749 -30.751 -5.42959
LeftHand  -0.378229 1.50872 11.2321
RightShoulder  -4.96962e-017 0 -2.36833e-017
RightArm  -40.6845 20.1215 51.5327
RightForeArm  175.342 75.9515 142.798
RightHand  0.500085 -8.78645 -17.665
LeftUpLeg  -5.07348 23.1837 16.8688
LeftLeg  41.6277 23.2748 17.1189
LeftFoot  15.6567 -1.16526 8.62187
LeftToes  -33.5172 2.25955e-006 -3.67304e-008
428
root  5.49165 34.3013 -21.0694 -1.03497 49.5791 -8.81576
RightUpLeg  -12.0488 -18.1871 8.37492
RightLeg  12.3847 -6.12699 -0.934202
RightFoot  2.8005 0.0171194 -0.115986
RightToes  -16.5893 -0.0794357 -0.148874
Spine  -1.54815 -0.808669 -0.321046
Spine1  -3.05795 -1.62287 0.217449
HEad  -66.3436 -22.7739 12.3219
LeftShoulder1  -1.94126e-019 -3.10601e-018 -2.51263e-017
LeftArm  -9.55386 19.7567 -77.897
LeftForeArm  23.2274 -31.3511 -5.5553
LeftHand  -0.399873 1.30256 11.3043
RightShoulder  -4.96962e-017 0 -2.36833e-017
RightArm  -44.182 27.857 47.2891
RightForeArm  158.307 79.6281 124.505
RightHand  0.680394 -8.90712 -22.6013
LeftUpLeg  -6.17772 20.6543 16.1651
LeftLeg  44.2123 15.8354 13.1256
LeftFoot  12.6676 -0.521716 4.85919
LeftToes  -29.8669 2.25955e-006 -3.67304e-008
429
root  5.77188 34.3819 -20.6299 -0.395042 45.8802 -7.81636
RightUpLeg  -10.1967 -16.3165 7.95445
RightLeg  10.6967 -4.46487 -0.547224
RightFoot  3.24064 0.0185249 -0.0749945
RightToes  -16.829 -0.077122 -0.15085
Spine  -1.66102 -0.383149 -0.727022
Spine1  -3.27579 -0.754102 -0.62786
HEad  -67.5956 -22.8981 12.682
LeftShoulder1  -1.94126e-019 -3.10601e-018 -2.51263e-017
LeftArm  -8.82497 18.6138 -77.5014
LeftForeArm  24.0599 -32.2524 -5.73387
LeftHand  -0.416509 1.08921 11.215
RightShoulder  -4.96962e-017 0 -2.36833e-017
RightArm  -47.8091 34.292 42.6567
RightForeArm  104.717 80.8886 69.2534
RightHand  0.75503 -8.71621 -26.1567
LeftUpLeg  -7.83652 18.2677 15.0289
LeftLeg  46.5019 12.9489 11.7229
LeftFoot  10.8056 -0.319852 3.54251
LeftToes  -29.1868 2.25955e-006 -3.67304e-008
430
root  6.05464 34.4415 -20.2475 0.271213 41.9261 -6.9889
RightUpLeg  -9.01477 -14.1078 7.53945
RightLeg  9.80465 -2.84064 -0.303238
RightFoot  3.56995 0.0170325 -0.00740274
RightToes  -17.5107 -0.0751078 -0.156513
Spine  -1.80152 0.154082 -1.08028
Spine1  -3.54772 0.317684 -1.35489
HEad  -69.6382 -22.7212 13.2538
LeftShoulder1  -1.94126e-019 -3.10601e-018 -2.51263e-017
LeftArm  -7.94263 17.7099 -77.2877
LeftForeArm  24.7494 -33.2741 -5.95607
LeftHand  -0.428278 0.93617 11.1522
RightShoulder  -4.96962e-017 0 -2.36833e-017
RightArm  -51.1326 40.4118 37.3285
RightForeArm  64.1516 71.9649 27.1016
RightHand  0.725819 -8.33881 -28.1727
LeftUpLeg  -9.36994 16.7925 13.9871
LeftLeg  47.5285 13.1584 12.3261
LeftFoot  10.4146 -0.307653 3.53638
LeftToes  -31.6033 2.25955e-006 -3.67304e-008
431
root  6.33237 34.479 -19.9402 0.749167 38.1573 -6.23
RightUpLeg  -8.26685 -11.7039 6.99193
RightLeg  9.73097 -1.62093 -0.17057
RightFoot  3.60872 0.0142413 0.061351
RightToes  -18.0376 -0.0741078 -0.16086
Spine  -1.88225 0.684248 -1.39872
Spine1  -3.70847 1.36884 -2.01159
HEad  -71.9379 -22.3919 13.9766
LeftShoulder1  -1.94126e-019 -3.10601e-018 -2.51263e-017
LeftArm  -6.73701 16.817 -77.2233
LeftForeArm  24.9072 -33.9108 -6.11303
LeftHand  -0.434288 0.838501 11.0759
RightShoulder  -4.96962e-017 0 -2.36833e-017
RightArm  -54.693 46.6484 31.0704
RightForeArm  52.7664 56.8309 12.6395
RightHand  0.429084 -7.21466 -27.1282
LeftUpLeg  -10.679 14.6486 12.9587
LeftLeg  47.0181 14.5123 13.295
LeftFoot  9.56253 -0.284967 3.56752
LeftToes  -31.3062 2.25955e-006 -3.67304e-008
432
root  6.64223 34.485 -19.6839 0.819319 34.7075 -5.78338
RightUpLeg  -7.69091 -9.61579 6.48768
RightLeg  10.2401 -0.452408 -0.0510008
RightFoot  3.35014 0.0106945 0.132038
RightToes  -18.7937 -0.0748366 -0.167053
Spine  -1.89093 1.19138 -1.63166
Spine1  -3.73513 2.38246 -2.5023
HEad  -73.4765 -22.1075 14.6248
LeftShoulder1  -1.94126e-019 -3.10601e-018 -2.51263e-017
LeftArm  -5.03656 15.8776 -77.3086
LeftForeArm  25.0621 -34.1779 -6.17536
LeftHand  -0.448476 0.597284 10.8853
RightShoulder  -4.96962e-017 0 -2.36833e-017
RightArm  -58.5376 52.3448 23.9209
RightForeArm  48.9834 39.3842 6.20262
RightHand  0.0911636 -5.90217 -22.4128
LeftUpLeg  -11.6881 12.3796 12.4217
LeftLeg  44.8754 15.8732 13.4552
LeftFoot  7.84207 -0.203873 3.13535
LeftToes  -30.3208 2.25955e-006 -3.67304e-008
433
root  7.00565 34.4662 -19.4851 0.796119 31.9158 -5.46647
RightUpLeg  -7.55273 -7.9899 5.91301
RightLeg  11.4791 0.584119 0.0807682
RightFoot  2.79622 0.00744163 0.182924
RightToes  -19.5237 -0.0788193 -0.172981
Spine  -1.88427 1.6351 -1.89101
Spine1  -3.72907 3.25768 -3.03601
HEad  -74.0065 -22.0387 15.3999
LeftShoulder1  -1.94126e-019 -3.10601e-018 -2.51263e-017
LeftArm  -2.96003 14.901 -77.4296
LeftForeArm  26.2479 -34.3617 -6.15647
LeftHand  -0.468143 0.110602 10.3576
RightShoulder  -4.96962e-017 0 -2.36833e-017
RightArm  -61.4125 56.0548 17.4075
RightForeArm  45.661 24.449 3.16673
RightHand  0.00190842 -5.52558 -14.9309
LeftUpLeg  -12.5161 9.27736 12.0112
LeftLeg  40.8312 17.111 12.5605
LeftFoot  5.17201 -0.0908894 2.17377
LeftToes  -28.5373 2.25955e-006 -3.67304e-008
434
root  7.3981 34.429 -19.3214 0.837474 29.974 -5.19126
RightUpLeg  -7.8862 -6.71567 5.28323
RightLeg  13.3602 1.17149 0.200172
RightFoot  1.99595 0.00547973 0.193027
RightToes  -20.3635 -0.0816564 -0.179738
Spine  -1.89547 1.91364 -2.20186
Spine1  -3.74147 3.77392 -3.64778
HEad  -73.6262 -22.2336 16.2373
LeftShoulder1  -1.94126e-019 -3.10601e-018 -2.51263e-017
LeftArm  -1.14522 14.0505 -77.6081
LeftForeArm  28.6482 -34.5807 -6.08108
LeftHand  -0.518223 -0.704413 9.99274
RightShoulder  -4.96962e-017 0 -2.36833e-017
RightArm  -64.76 56.6826 14.3766
RightForeArm  48.7262 17.8047 3.11356
RightHand  -0.0665807 -4.57656 -6.72917
LeftUpLeg  -13.1186 4.04108 11.7043
LeftLeg  34.4531 17.1826 9.97142
LeftFoot  3.35138 -0.0355943 1.37825
LeftToes  -28.3311 2.25955e-006 -3.67304e-008
435
root  7.85271 34.3597 -19.1947 0.861451 28.877 -4.791
RightUpLeg  -8.50771 -6.32875 4.3537
RightLeg  15.9685 1.80079 0.391758
RightFoot  0.736685 0.0018665 0.173131
RightToes  -20.6681 -0.0852142 -0.182172
Spine  -1.86702 1.86735 -2.41523
Spine1  -3.66378 3.63786 -4.04757
HEad  -72.3666 -22.2471 16.3382
LeftShoulder1  -1.94126e-019 -3.10601e-018 -2.51263e-017
LeftArm  -0.560338 13.8068 -78.1224
LeftForeArm  30.9261 -34.8121 -6.01096
LeftHand  -0.551474 -1.37565 9.62268
RightShoulder  -4.96962e-017 0 -2.36833e-017
RightArm  -60.7311 55.18 16.0082
RightForeArm  51.7691 20.657 3.51755
RightHand  -0.115903 -3.13308 -5.25365
LeftUpLeg  -13.3927 -2.34983 11.5619
LeftLeg  26.3797 15.0358 6.18901
LeftFoot  2.59407 -0.0172162 0.921948
LeftToes  -27.9607 2.25955e-006 -3.67304e-008
436
root  8.38663 34.2705 -19.1126 0.751048 28.2682 -4.02746
RightUpLeg  -8.98016 -6.79247 2.8558
RightLeg  18.8666 2.77131 0.750295
RightFoot  -0.610642 -0.00257517 0.115557
RightToes  -21.8619 -0.0920793 -0.191621
Spine  -1.68961 1.56202 -2.48229
Spine1  -3.31054 3.02267 -4.16405
HEad  -70.8576 -21.7891 15.3326
LeftShoulder1  -1.94126e-019 -3.10601e-018 -2.51263e-017
LeftArm  -1.27113 14.3117 -78.865
LeftForeArm  31.4126 -34.8577 -5.9843
LeftHand  -0.55061 -1.72861 9.15774
RightShoulder  -4.96962e-017 0 -2.36833e-017
RightArm  -53.0762 52.6367 19.0022
RightForeArm  45.3247 29.7683 4.05345
RightHand  -0.112864 -3.50412 -6.02201
LeftUpLeg  -14.1138 -7.55119 10.9386
LeftLeg  24.2763 13.7767 5.10997
LeftFoot  4.44061 -0.0451003 1.32477
LeftToes  -23.1176 2.25955e-006 -3.67304e-008
437
root  8.9082 34.1216 -18.9977 0.0953292 27.3615 -4.26149
RightUpLeg  -9.08322 -6.84409 2.29227
RightLeg  21.1733 3.4836 1.09431
RightFoot  -1.83164 -0.00819867 0.0309142
RightToes  -22.6888 -0.0969491 -0.198081
Spine  -1.45465 1.44834 -2.12695
Spine1  -2.87312 2.86025 -3.48306
HEad  -69.5878 -21.1456 13.4792
LeftShoulder1  -1.94126e-019 -3.10601e-018 -2.51263e-017
LeftArm  -1.92252 15.2177 -79.7066
LeftForeArm  30.8334 -35.305 -6.1307
LeftHand  -0.555526 -1.90301 9.02971
RightShoulder  -4.96962e-017 0 -2.36833e-017
RightArm  -51.9537 48.7937 20.6396
RightForeArm  41.2093 42.5619 7.57969
RightHand  -0.0701753 -4.36212 -5.7537
LeftUpLeg  -14.7435 -6.28545 10.467
LeftLeg  28.4479 13.0309 5.93456
LeftFoot  1.93061 -0.00839285 0.659679
LeftToes  -23.5361 2.25955e-006 -3.67304e-008
